<svg width="2419" height="2419" xmlns="http://www.w3.org/2000/svg" overflow="hidden">
    <g>
        <rect x="0" y="0" width="2419" height="2419" fill="#000000" fill-opacity="0"/>
        <path d="M765.531 755.64 765.531 1552.33 919.925 1346.41 920.146 1346.58 921.375 1345.09C927.575 1338.89 936.14 1335.06 945.597 1335.06 947.301 1335.06 948.992 1335.19 950.657 1335.44L951.647 1335.66 952.313 1335.73 953.387 1336.05 955.562 1336.54 957.645 1337.34 958.709 1337.67 959.299 1337.98 960.237 1338.34C961.749 1339.06 963.209 1339.88 964.606 1340.81L966.37 1342.26 967.534 1343.21 967.606 1343.13 968.833 1344.27 969.825 1345.09 970.212 1345.56 1027.87 1399.24 1137.35 1501.16 1471.7 1055.27 1472 1055.49 1472.95 1054.34C1477.6 1049.69 1483.58 1046.37 1490.27 1045 1492.5 1044.54 1494.81 1044.3 1497.17 1044.3 1506.25 1044.3 1514.97 1047.92 1521.39 1054.34L1524.26 1057.83 1524.27 1057.81 1524.43 1058.04 1525.25 1059.03 1525.67 1059.55 1526.26 1060.65 1586.76 1147.03 1669.47 1265.1 1669.47 755.64ZM689.099 604 1745.9 604C1765.82 604 1784.92 611.908 1799.01 625.985 1813.09 640.061 1821 659.152 1821 679.059L1821 1395.03 1814.89 1392.14C1781.16 1378.18 1744.7 1370.79 1707.48 1370.79 1552.46 1370.79 1426.8 1496.39 1426.8 1651.32 1426.8 1709.42 1444.47 1763.39 1474.74 1808.16L1480.6 1816 689.099 1816C647.623 1816 614 1782.4 614 1740.94L614 679.059C614 637.605 647.623 604 689.099 604Z"
              fill="#B7B7B7" fill-rule="evenodd"/>
        <path d="M908 1005 908 1005C908 927.682 970.457 865 1047.5 865L1047.5 865C1084.49 865 1119.98 879.75 1146.14 906.004 1172.3 932.258 1187 967.869 1187 1005L1187 1005C1187 1082.33 1124.54 1145 1047.5 1145L1047.5 1145C970.457 1145 908 1082.33 908 1005Z"
              fill="#B7B7B7" fill-rule="evenodd"/>
        <path d="M908 1005 908 1005C908 927.682 970.457 865 1047.5 865L1047.5 865C1084.49 865 1119.98 879.75 1146.14 906.004 1172.3 932.258 1187 967.869 1187 1005L1187 1005C1187 1082.33 1124.54 1145 1047.5 1145L1047.5 1145C970.457 1145 908 1082.33 908 1005Z"
              stroke="#B7B7B7" stroke-width="7.86721" stroke-linejoin="round" stroke-miterlimit="10" fill="#B7B7B7" fill-rule="evenodd"/>
        <path d="M1495 1651.5 1495 1651.5C1495 1534.69 1589.91 1440 1707 1440L1707 1440C1763.23 1440 1817.14 1462.28 1856.91 1501.95 1896.66 1541.61 1919 1595.41 1919 1651.5L1919 1651.5C1919 1768.31 1824.09 1863 1707 1863L1707 1863C1589.91 1863 1495 1768.31 1495 1651.5Z"
              fill="#B7B7B7" fill-rule="evenodd"/>
        <path d="M1686.55 1685.78 1677.46 1648.6C1682.95 1647.28 1688.16 1645.73 1693.07 1643.93 1697.99 1642.13 1702.53 1640.19 1706.7 1638.11 1710.86 1636.02 1714.42 1633.61 1717.35 1630.87 1720.28 1628.13 1722.6 1625.11 1724.3 1621.8 1726.01 1618.49 1726.86 1614.94 1726.86 1611.16 1726.86 1607.37 1725.91 1604.11 1724.02 1601.37 1722.13 1598.62 1719.58 1596.49 1716.36 1594.98 1713.14 1593.47 1709.36 1592.71 1705 1592.71 1698.76 1592.71 1692.52 1594.93 1686.27 1599.38 1680.02 1603.83 1674.25 1610.97 1668.94 1620.8L1638 1592.14C1646.52 1579.08 1656.69 1568.97 1668.52 1561.79 1680.35 1554.59 1692.7 1551 1705.57 1551 1718.06 1551 1729.32 1553.51 1739.35 1558.52 1749.39 1563.54 1757.34 1570.44 1763.2 1579.24 1769.07 1588.03 1772 1597.91 1772 1608.88 1772 1615.88 1770.53 1622.79 1767.6 1629.6 1764.67 1636.41 1760.6 1642.79 1755.39 1648.75 1750.19 1654.71 1744.09 1659.95 1737.08 1664.5 1730.08 1669.03 1722.32 1672.53 1713.8 1674.99L1710.97 1685.78 1686.55 1685.78ZM1676.33 1731.74C1676.33 1724.18 1678.6 1718.03 1683.14 1713.31 1687.68 1708.57 1693.55 1706.21 1700.75 1706.21 1708.5 1706.21 1714.56 1708.43 1718.91 1712.88 1723.27 1717.32 1725.45 1723.61 1725.45 1731.74 1725.45 1739.12 1723.18 1745.18 1718.63 1749.91 1714.09 1754.63 1708.13 1757 1700.75 1757 1692.99 1757 1686.97 1754.82 1682.71 1750.47 1678.46 1746.11 1676.33 1739.87 1676.33 1731.74Z"
              fill="#666666" fill-rule="evenodd"/>
        <path d="M1611.02 1669.4 1601.01 1655.31C1603.08 1653.83 1605.01 1652.3 1606.77 1650.73 1608.54 1649.15 1610.12 1647.58 1611.52 1646 1612.91 1644.43 1613.99 1642.82 1614.77 1641.19 1615.54 1639.54 1616.01 1637.88 1616.16 1636.21 1616.33 1634.54 1616.1 1632.9 1615.46 1631.31 1614.83 1629.72 1613.88 1628.51 1612.64 1627.68 1611.39 1626.84 1609.96 1626.37 1608.36 1626.27 1606.75 1626.17 1605.03 1626.49 1603.21 1627.21 1600.59 1628.26 1598.34 1630.23 1596.45 1633.16 1594.58 1636.07 1593.36 1640.04 1592.78 1645.05L1575 1638.19C1576.4 1631.28 1578.97 1625.33 1582.74 1620.34 1586.5 1615.33 1591.08 1611.75 1596.47 1609.6 1601.71 1607.51 1606.86 1606.68 1611.91 1607.11 1616.96 1607.54 1621.44 1609.1 1625.37 1611.83 1629.3 1614.54 1632.18 1618.2 1634.02 1622.81 1635.19 1625.75 1635.73 1628.9 1635.64 1632.24 1635.55 1635.59 1634.91 1638.96 1633.72 1642.34 1632.53 1645.7 1630.85 1648.93 1628.67 1652.01 1626.5 1655.09 1623.82 1657.85 1620.67 1660.32L1621.27 1665.32 1611.02 1669.4ZM1614.43 1690.42C1613.16 1687.25 1613.08 1684.28 1614.2 1681.54 1615.31 1678.79 1617.38 1676.81 1620.39 1675.61 1623.65 1674.31 1626.57 1674.23 1629.13 1675.37 1631.7 1676.52 1633.67 1678.79 1635.03 1682.21 1636.27 1685.3 1636.32 1688.23 1635.2 1690.98 1634.09 1693.73 1631.99 1695.71 1628.89 1696.95 1625.64 1698.25 1622.75 1698.34 1620.24 1697.23 1617.72 1696.11 1615.79 1693.85 1614.43 1690.42Z"
              fill="#666666" fill-rule="evenodd"/>
        <path d="M1794.99 1662.72 1797.38 1645.55C1799.88 1645.91 1802.3 1646.12 1804.64 1646.2 1806.98 1646.27 1809.19 1646.21 1811.27 1646.03 1813.34 1645.86 1815.21 1645.43 1816.89 1644.76 1818.57 1644.1 1820.02 1643.22 1821.27 1642.12 1822.54 1641.01 1823.47 1639.65 1824.1 1638.06 1824.73 1636.47 1824.88 1634.93 1824.54 1633.48 1824.22 1632 1823.51 1630.68 1822.43 1629.51 1821.34 1628.32 1819.89 1627.37 1818.08 1626.63 1815.49 1625.58 1812.52 1625.47 1809.18 1626.3 1805.85 1627.13 1802.26 1629.17 1798.44 1632.42L1790.33 1615.16C1796.03 1611.1 1801.93 1608.55 1808.04 1607.51 1814.15 1606.47 1819.87 1607.02 1825.22 1609.17 1830.42 1611.27 1834.68 1614.22 1838.02 1618.01 1841.36 1621.8 1843.51 1626.03 1844.48 1630.73 1845.46 1635.4 1845.05 1640.05 1843.24 1644.67 1842.07 1647.62 1840.32 1650.29 1837.98 1652.66 1835.63 1655.03 1832.89 1657.04 1829.73 1658.67 1826.58 1660.3 1823.18 1661.49 1819.51 1662.23 1815.86 1662.97 1812.06 1663.14 1808.11 1662.75L1805.14 1666.81 1794.99 1662.72ZM1783.14 1680.35C1784.39 1677.16 1786.35 1674.95 1789.01 1673.73 1791.69 1672.5 1794.53 1672.49 1797.51 1673.69 1800.74 1675 1802.89 1676.94 1803.95 1679.55 1805.03 1682.15 1804.89 1685.16 1803.55 1688.58 1802.32 1691.69 1800.38 1693.86 1797.7 1695.08 1795.03 1696.31 1792.17 1696.3 1789.1 1695.07 1785.88 1693.77 1783.74 1691.85 1782.68 1689.32 1781.64 1686.76 1781.79 1683.78 1783.14 1680.35Z"
              fill="#666666" fill-rule="evenodd"/>
    </g>
</svg>